<svg width="24.000000" height="24.000000" viewBox="0 0 24 24" fill="none" xmlns="http://www.w3.org/2000/svg" xmlns:xlink="http://www.w3.org/1999/xlink">
	<desc>
			Created with Pixso.
	</desc>
	<defs>
		<clipPath id="clip0_700">
			<rect id="bell-01" width="24.000000" height="24.000000" fill="white" fill-opacity="0"/>
		</clipPath>
	</defs>
	<g clip-path="url(#clip0_700)">
		<path id="Icon" d="M16.24 3.75C15.11 2.63 13.59 2 12 2C10.4 2 8.88 2.63 7.75 3.75C6.63 4.88 6 6.4 6 8C6 11.09 5.22 13.2 4.34 14.6C3.61 15.78 3.24 16.37 3.26 16.54C3.27 16.72 3.31 16.79 3.46 16.9C3.59 17 4.19 17 5.38 17L18.61 17C19.8 17 20.4 17 20.53 16.9C20.68 16.79 20.72 16.72 20.73 16.54C20.75 16.37 20.38 15.78 19.65 14.6C18.77 13.2 18 11.09 18 8C18 6.4 17.36 4.88 16.24 3.75ZM14.64 21C13.94 21.62 13.01 22 12 22C10.98 22 10.05 21.62 9.35 " stroke="#151515" stroke-opacity="1.000000" stroke-width="1.600000" stroke-linejoin="round" stroke-linecap="round"/>
	</g>
</svg>
