<svg width="16.000000" height="16.000000" viewBox="0 0 16 16" fill="none" xmlns="http://www.w3.org/2000/svg" xmlns:xlink="http://www.w3.org/1999/xlink">
	<desc>
			Created with Pixso.
	</desc>
	<defs>
		<clipPath id="clip3_246">
			<rect id="trash-01" width="16.000000" height="16.000000" fill="white" fill-opacity="0"/>
		</clipPath>
	</defs>
	<g clip-path="url(#clip3_246)">
		<path id="Icon" d="M5.33 4L5.33 3.46C5.33 2.71 5.33 2.34 5.47 2.06C5.6 1.81 5.81 1.6 6.06 1.47C6.34 1.33 6.71 1.33 7.46 1.33L8.53 1.33C9.28 1.33 9.65 1.33 9.93 1.47C10.18 1.6 10.39 1.81 10.52 2.06C10.66 2.34 10.66 2.71 10.66 3.46L10.66 4M6.66 7.66L6.66 11M9.33 7.66L9.33 11M2 4L14 4M12.66 4L12.66 11.46C12.66 12.58 12.66 13.14 12.44 13.57C12.25 13.95 11.95 14.25 11.57 14.44C11.14 14.66 10.58 14.66 9.46 14.66L6.53 14.66C5.41 14.66 4.85 14.66 4.42 14.44C4.04 14.25 3.74 13.95 3.55 13.57C3.33 13.14 3.33 12.58 3.33 11.46L3.33 " stroke="#FEFEFE" stroke-opacity="1.000000" stroke-width="1.600000" stroke-linejoin="round"/>
	</g>
</svg>
