<svg width="16.000000" height="16.000000" viewBox="0 0 16 16" fill="none" xmlns="http://www.w3.org/2000/svg" xmlns:xlink="http://www.w3.org/1999/xlink">
	<desc>
			Created with Pixso.
	</desc>
	<defs>
		<clipPath id="clip3_248">
			<rect id="edit-04" width="16.000000" height="16.000000" fill="white" fill-opacity="0"/>
		</clipPath>
	</defs>
	<g clip-path="url(#clip3_248)">
		<path id="Icon" d="M14 12L13.33 12.72C12.97 13.11 12.5 13.33 12 13.33C11.5 13.33 11.02 13.11 10.66 12.72C10.31 12.34 9.83 12.12 9.33 12.12C8.83 12.12 8.35 12.34 8 12.72M11 2.33C11.55 1.78 12.44 1.78 13 2.33C13.55 2.88 13.55 3.78 13 4.33L4.62 12.7C4.39 12.93 4.27 13.05 4.14 13.13C4.02 13.21 3.89 13.26 3.75 13.29C3.6 13.33 3.44 13.33 3.11 13.33L2 13.33L2 12.21C2 11.89 2 11.72 2.03 11.57C2.06 11.43 2.12 11.3 2.19 11.18C2.27 11.05 2.39 10.93 2.62 10.7L11 2.33Z" stroke="#FEFEFE" stroke-opacity="1.000000" stroke-width="1.600000" stroke-linejoin="round" stroke-linecap="round"/>
	</g>
</svg>
